<svg width="21" height="20" viewBox="0 0 21 20" fill="none" xmlns="http://www.w3.org/2000/svg">
<path d="M10.9233 0.19753C9.90634 0.18553 8.91094 0.521536 8.20434 1.22854L1.26685 8.32155C0.968447 8.62655 0.888547 9.06552 1.07935 9.44752L1.98554 11.2595L1.95435 16.9785C1.95425 18.1095 2.86054 19.0095 3.98554 19.0095H8.17304C9.17034 19.0095 9.98534 18.1945 9.98534 17.1975V12.8845C9.98534 12.4005 10.3763 12.0095 10.8603 12.0095H11.1103C11.5943 12.0095 11.9853 12.4005 11.9853 12.8845V17.1975C11.9853 18.1945 12.8003 19.0095 13.7983 19.0095H17.9853C19.1103 19.0095 20.0163 18.1035 20.0163 16.9785L19.9853 11.2595L20.8913 9.44752C21.0843 9.06252 21.0083 8.59554 20.7043 8.29054C20.4443 8.03054 14.3293 1.91555 13.7043 1.29055C12.9793 0.565547 11.9393 0.20853 10.9233 0.19753ZM10.9233 2.19753C11.4263 2.20753 11.9283 2.39053 12.2663 2.72853C12.8473 3.30853 17.8023 8.26353 18.7663 9.22853L18.0793 10.5715C18.0093 10.7125 17.9843 10.8525 17.9853 11.0095L18.0163 16.9785C18.0163 16.9925 18.0063 17.0095 17.9853 17.0095H13.9853V12.8845C13.9853 11.2955 12.6993 10.0095 11.1103 10.0095H10.8603C9.27134 10.0095 7.98554 11.2955 7.98554 12.8845V17.0095H3.98554C3.96514 17.0095 3.95435 16.9985 3.95435 16.9785L3.98554 11.0095C3.98654 10.8525 3.96215 10.7125 3.89185 10.5715L3.20435 9.19752L9.61034 2.63454C9.91934 2.32554 10.4193 2.18653 10.9233 2.19753Z" fill="#F9F8FD"/>
</svg>
