<svg width="1311" height="1670" viewBox="0 0 1311 1670" fill="none" xmlns="http://www.w3.org/2000/svg">
<path d="M9.05 1579V1483.07H35.295V1495.92C38.3117 1490.97 42.2333 1487.41 47.06 1485.24C51.8867 1483.07 56.7737 1481.98 61.721 1481.98C64.255 1481.98 66.97 1482.23 69.866 1482.71V1510.76C66.1253 1509.44 62.445 1508.77 58.825 1508.77C57.015 1508.77 54.3 1509.13 50.68 1509.86C47.1807 1510.46 43.7417 1512.63 40.363 1516.37C36.9843 1519.99 35.295 1524.52 35.295 1529.95V1579H9.05ZM110.594 1483.07V1535.92C110.594 1539.9 111.438 1543.46 113.128 1546.6C114.817 1549.62 117.11 1551.97 120.006 1553.66C122.902 1555.35 126.099 1556.19 129.599 1556.19C133.822 1556.19 137.563 1555.17 140.821 1553.12C144.079 1550.94 146.552 1548.11 148.242 1544.61C150.052 1540.99 150.957 1537.01 150.957 1532.66V1483.07H177.202V1579H150.957V1570.13C147.699 1573.39 143.777 1575.98 139.192 1577.91C134.727 1579.72 129.719 1580.63 124.169 1580.63C117.17 1580.63 110.594 1579.12 104.44 1576.1C98.4065 1572.97 93.5195 1568.5 89.7788 1562.71C86.1588 1556.92 84.3488 1550.22 84.3488 1542.62V1483.07H110.594ZM193.522 1531.03C193.522 1521.98 195.633 1513.66 199.857 1506.06C204.201 1498.45 209.993 1492.48 217.233 1488.14C224.473 1483.67 232.376 1481.44 240.944 1481.44C246.253 1481.44 251.08 1482.29 255.424 1483.97C259.888 1485.66 263.87 1488.08 267.37 1491.21V1483.07H293.615V1579H267.37V1571.04C263.87 1574.05 259.888 1576.41 255.424 1578.09C251.08 1579.66 246.253 1580.45 240.944 1580.45C232.497 1580.45 224.593 1578.22 217.233 1573.75C209.993 1569.17 204.201 1563.13 199.857 1555.65C195.633 1548.05 193.522 1539.84 193.522 1531.03ZM217.957 1531.03C217.957 1535.62 219.043 1539.9 221.215 1543.89C223.507 1547.75 226.584 1550.88 230.446 1553.3C234.307 1555.59 238.651 1556.74 243.478 1556.74C248.063 1556.74 252.286 1555.59 256.148 1553.3C260.13 1550.88 263.267 1547.69 265.56 1543.7C267.973 1539.72 269.18 1535.5 269.18 1531.03C269.18 1526.57 267.973 1522.35 265.56 1518.36C263.267 1514.38 260.13 1511.19 256.148 1508.77C252.286 1506.36 248.063 1505.15 243.478 1505.15C238.772 1505.15 234.428 1506.36 230.446 1508.77C226.584 1511.06 223.507 1514.2 221.215 1518.18C219.043 1522.17 217.957 1526.45 217.957 1531.03ZM312.543 1483.07H338.788V1491.94C342.046 1488.68 345.907 1486.15 350.372 1484.34C354.958 1482.41 360.026 1481.44 365.576 1481.44C372.575 1481.44 379.091 1483.01 385.124 1486.15C391.278 1489.16 396.165 1493.57 399.785 1499.36C403.526 1505.15 405.396 1511.85 405.396 1519.45V1579H379.151V1526.15C379.151 1522.17 378.306 1518.67 376.617 1515.65C374.928 1512.51 372.635 1510.1 369.739 1508.41C366.843 1506.72 363.645 1505.88 360.146 1505.88C355.923 1505.88 352.182 1506.96 348.924 1509.13C345.666 1511.19 343.132 1514.02 341.322 1517.64C339.633 1521.14 338.788 1525.06 338.788 1529.41V1579H312.543V1483.07ZM419.948 1529.77C419.948 1520.6 422 1512.33 426.102 1504.97C430.326 1497.49 435.997 1491.7 443.116 1487.6C450.236 1483.49 458.079 1481.44 466.646 1481.44C466.888 1481.44 467.129 1481.44 467.37 1481.44C472.68 1481.56 477.506 1482.47 481.85 1484.16C486.315 1485.85 490.297 1488.26 493.796 1491.4V1483.07H520.041V1574.11C520.041 1582.92 517.99 1590.89 513.887 1598.01C509.785 1605.12 504.113 1610.68 496.873 1614.66C489.633 1618.76 481.428 1620.81 472.257 1620.81C464.897 1620.81 457.898 1619.42 451.261 1616.65C444.745 1613.99 439.074 1609.83 434.247 1604.16C429.421 1598.49 426.042 1591.55 424.111 1583.34H450.356C451.684 1586.6 453.494 1589.2 455.786 1591.13C458.079 1593.06 460.613 1594.39 463.388 1595.11C466.164 1595.95 468.999 1596.38 471.895 1596.38C476.481 1596.38 480.402 1595.47 483.66 1593.66C487.039 1591.97 489.573 1589.44 491.262 1586.06C492.952 1582.8 493.796 1578.82 493.796 1574.11V1569.23C490.418 1572 486.496 1574.17 482.031 1575.74C477.687 1577.31 472.8 1578.09 467.37 1578.09C458.32 1578.09 450.175 1575.98 442.935 1571.76C435.695 1567.42 430.024 1561.56 425.921 1554.2C421.939 1546.84 419.948 1538.7 419.948 1529.77ZM444.383 1529.77C444.383 1534.23 445.53 1538.4 447.822 1542.26C450.115 1546.12 453.192 1549.2 457.053 1551.49C461.035 1553.66 465.319 1554.75 469.904 1554.75C474.49 1554.75 478.713 1553.66 482.574 1551.49C486.556 1549.2 489.694 1546.12 491.986 1542.26C494.4 1538.4 495.606 1534.23 495.606 1529.77C495.606 1525.3 494.46 1521.14 492.167 1517.28C489.875 1513.42 486.737 1510.4 482.755 1508.23C478.773 1505.94 474.49 1504.79 469.904 1504.79C465.319 1504.79 461.035 1505.94 457.053 1508.23C453.192 1510.4 450.115 1513.42 447.822 1517.28C445.53 1521.14 444.383 1525.3 444.383 1529.77Z" fill="#4B4FC4"/>
<path d="M550.756 1483.07V1462.07L576.639 1454.65V1483.07H604.332V1505.69H576.639V1546.78C576.639 1549.32 577.725 1551.49 579.897 1553.3C582.069 1555.11 584.301 1556.07 586.594 1556.19C588.887 1556.19 590.154 1556.19 590.395 1556.19C594.618 1556.19 599.686 1555.05 605.599 1552.75V1578.09C598.962 1580.03 592.688 1580.99 586.775 1580.99C583.758 1580.99 579.475 1580.51 573.924 1579.54C568.373 1578.58 563.124 1575.26 558.177 1569.59C553.23 1563.92 550.756 1556.37 550.756 1546.96V1505.69H534.466V1483.07H550.756ZM647.231 1483.07V1535.92C647.231 1539.9 648.075 1543.46 649.765 1546.6C651.454 1549.62 653.747 1551.97 656.643 1553.66C659.539 1555.35 662.736 1556.19 666.236 1556.19C670.459 1556.19 674.2 1555.17 677.458 1553.12C680.716 1550.94 683.189 1548.11 684.879 1544.61C686.689 1540.99 687.594 1537.01 687.594 1532.66V1483.07H713.839V1579H687.594V1570.13C684.336 1573.39 680.414 1575.98 675.829 1577.91C671.364 1579.72 666.356 1580.63 660.806 1580.63C653.807 1580.63 647.231 1579.12 641.077 1576.1C635.043 1572.97 630.156 1568.5 626.416 1562.71C622.796 1556.92 620.986 1550.22 620.986 1542.62V1483.07H647.231ZM732.873 1483.07H759.118V1491.94C762.376 1488.68 766.238 1486.15 770.702 1484.34C775.288 1482.41 780.356 1481.44 785.906 1481.44C792.905 1481.44 799.421 1483.01 805.454 1486.15C811.608 1489.16 816.495 1493.57 820.115 1499.36C823.856 1505.15 825.726 1511.85 825.726 1519.45V1579H799.481V1526.15C799.481 1522.17 798.637 1518.67 796.947 1515.65C795.258 1512.51 792.965 1510.1 790.069 1508.41C787.173 1506.72 783.976 1505.88 780.476 1505.88C776.253 1505.88 772.512 1506.96 769.254 1509.13C765.996 1511.19 763.462 1514.02 761.652 1517.64C759.963 1521.14 759.118 1525.06 759.118 1529.41V1579H732.873V1483.07ZM840.278 1529.77C840.278 1520.6 842.33 1512.33 846.432 1504.97C850.656 1497.49 856.327 1491.7 863.446 1487.6C870.566 1483.49 878.409 1481.44 886.976 1481.44C887.218 1481.44 887.459 1481.44 887.7 1481.44C893.01 1481.56 897.836 1482.47 902.18 1484.16C906.645 1485.85 910.627 1488.26 914.126 1491.4V1483.07H940.371V1574.11C940.371 1582.92 938.32 1590.89 934.217 1598.01C930.115 1605.12 924.443 1610.68 917.203 1614.66C909.963 1618.76 901.758 1620.81 892.587 1620.81C885.227 1620.81 878.228 1619.42 871.591 1616.65C865.075 1613.99 859.404 1609.83 854.577 1604.16C849.751 1598.49 846.372 1591.55 844.441 1583.34H870.686C872.014 1586.6 873.824 1589.2 876.116 1591.13C878.409 1593.06 880.943 1594.39 883.718 1595.11C886.494 1595.95 889.329 1596.38 892.225 1596.38C896.811 1596.38 900.732 1595.47 903.99 1593.66C907.369 1591.97 909.903 1589.44 911.592 1586.06C913.282 1582.8 914.126 1578.82 914.126 1574.11V1569.23C910.748 1572 906.826 1574.17 902.361 1575.74C898.017 1577.31 893.13 1578.09 887.7 1578.09C878.65 1578.09 870.505 1575.98 863.265 1571.76C856.025 1567.42 850.354 1561.56 846.251 1554.2C842.269 1546.84 840.278 1538.7 840.278 1529.77ZM864.713 1529.77C864.713 1534.23 865.86 1538.4 868.152 1542.26C870.445 1546.12 873.522 1549.2 877.383 1551.49C881.365 1553.66 885.649 1554.75 890.234 1554.75C894.82 1554.75 899.043 1553.66 902.904 1551.49C906.886 1549.2 910.024 1546.12 912.316 1542.26C914.73 1538.4 915.936 1534.23 915.936 1529.77C915.936 1525.3 914.79 1521.14 912.497 1517.28C910.205 1513.42 907.067 1510.4 903.085 1508.23C899.103 1505.94 894.82 1504.79 890.234 1504.79C885.649 1504.79 881.365 1505.94 877.383 1508.23C873.522 1510.4 870.445 1513.42 868.152 1517.28C865.86 1521.14 864.713 1525.3 864.713 1529.77ZM955.701 1529.77C955.701 1520.6 957.753 1512.33 961.855 1504.97C966.079 1497.49 971.75 1491.7 978.869 1487.6C985.989 1483.49 993.832 1481.44 1002.4 1481.44C1002.64 1481.44 1002.88 1481.44 1003.12 1481.44C1008.43 1481.56 1013.26 1482.47 1017.6 1484.16C1022.07 1485.85 1026.05 1488.26 1029.55 1491.4V1483.07H1055.79V1574.11C1055.79 1582.92 1053.74 1590.89 1049.64 1598.01C1045.54 1605.12 1039.87 1610.68 1032.63 1614.66C1025.39 1618.76 1017.18 1620.81 1008.01 1620.81C1000.65 1620.81 993.651 1619.42 987.014 1616.65C980.498 1613.99 974.827 1609.83 970 1604.16C965.174 1598.49 961.795 1591.55 959.864 1583.34H986.109C987.437 1586.6 989.247 1589.2 991.539 1591.13C993.832 1593.06 996.366 1594.39 999.141 1595.11C1001.92 1595.95 1004.75 1596.38 1007.65 1596.38C1012.23 1596.38 1016.16 1595.47 1019.41 1593.66C1022.79 1591.97 1025.33 1589.44 1027.02 1586.06C1028.7 1582.8 1029.55 1578.82 1029.55 1574.11V1569.23C1026.17 1572 1022.25 1574.17 1017.78 1575.74C1013.44 1577.31 1008.55 1578.09 1003.12 1578.09C994.073 1578.09 985.928 1575.98 978.688 1571.76C971.448 1567.42 965.777 1561.56 961.674 1554.2C957.692 1546.84 955.701 1538.7 955.701 1529.77ZM980.136 1529.77C980.136 1534.23 981.283 1538.4 983.575 1542.26C985.868 1546.12 988.945 1549.2 992.806 1551.49C996.788 1553.66 1001.07 1554.75 1005.66 1554.75C1010.24 1554.75 1014.47 1553.66 1018.33 1551.49C1022.31 1549.2 1025.45 1546.12 1027.74 1542.26C1030.15 1538.4 1031.36 1534.23 1031.36 1529.77C1031.36 1525.3 1030.21 1521.14 1027.92 1517.28C1025.63 1513.42 1022.49 1510.4 1018.51 1508.23C1014.53 1505.94 1010.24 1504.79 1005.66 1504.79C1001.07 1504.79 996.788 1505.94 992.806 1508.23C988.945 1510.4 985.868 1513.42 983.575 1517.28C981.283 1521.14 980.136 1525.3 980.136 1529.77ZM1100.08 1483.07V1535.92C1100.08 1539.9 1100.93 1543.46 1102.62 1546.6C1104.31 1549.62 1106.6 1551.97 1109.5 1553.66C1112.39 1555.35 1115.59 1556.19 1119.09 1556.19C1123.31 1556.19 1127.05 1555.17 1130.31 1553.12C1133.57 1550.94 1136.04 1548.11 1137.73 1544.61C1139.54 1540.99 1140.45 1537.01 1140.45 1532.66V1483.07H1166.69V1579H1140.45V1570.13C1137.19 1573.39 1133.27 1575.98 1128.68 1577.91C1124.22 1579.72 1119.21 1580.63 1113.66 1580.63C1106.66 1580.63 1100.08 1579.12 1093.93 1576.1C1087.9 1572.97 1083.01 1568.5 1079.27 1562.71C1075.65 1556.92 1073.84 1550.22 1073.84 1542.62V1483.07H1100.08Z" fill="#FFD84B"/>
<path d="M353.032 493.912H400.071V179.911C403.789 113.552 436.203 70.3295 517.669 59.852V18.2931C392.511 33.6126 358.527 93.238 353.032 179.911V493.912Z" fill="#DFE2FB"/>
<path d="M785.967 493.912H738.928V179.911C735.211 113.552 702.797 70.3295 621.33 59.852V18.2931C746.489 33.6126 780.472 93.238 785.967 179.911V493.912Z" fill="#DFE2FB"/>
<rect x="456.693" y="3.05176e-05" width="60.9767" height="73.1721" rx="30.4884" fill="#4061F4"/>
<rect x="621.33" y="3.05176e-05" width="60.9767" height="73.1721" rx="30.4884" fill="#4061F4"/>
<path d="M331.69 457.326H426.204L438.4 475.619C578.646 719.526 767.674 771.356 807.309 1000.02V1335.39H331.69V1024.41C383.485 1018.25 405.179 1026.7 426.204 1070.14V1237.83H712.795V1000.02C694.502 911.602 654.867 862.821 539.011 756.112C423.156 649.402 331.69 521.351 331.69 521.351V457.326Z" fill="#4B4FC4"/>
<path d="M807.309 457.326H712.795L700.6 475.619C560.353 719.526 371.325 771.356 331.69 1000.02V1335.39H807.309V1024.41C755.515 1018.25 733.821 1026.7 712.795 1070.14V1237.83H426.204V1000.02C444.497 911.602 484.132 862.821 599.988 756.112C715.844 649.403 807.309 521.351 807.309 521.351V457.326Z" fill="#4B4FC4"/>
<path d="M474.986 1155.51H654.867" stroke="#4B4FC4" stroke-width="26"/>
</svg>
