<svg width="244" height="10" viewBox="0 0 244 10" fill="none" xmlns="http://www.w3.org/2000/svg">
<line y1="4.75" x2="101" y2="4.75" stroke="#58585B" stroke-width="0.5"/>
<line x1="141" y1="4.75" x2="244" y2="4.75" stroke="#58585B" stroke-width="0.5"/>
<path d="M112.084 2.832C110.692 2.832 109.732 3.612 109.66 4.932H110.812C110.908 4.2 111.364 3.792 112.048 3.792C112.816 3.792 113.308 4.332 113.308 5.148V5.256L111.46 5.652C110.164 5.916 109.432 6.54 109.432 7.524C109.432 8.616 110.284 9.144 111.316 9.144C112.264 9.144 112.96 8.712 113.404 8.016V9H114.436V5.244C114.436 3.696 113.524 2.832 112.084 2.832ZM111.676 8.244C111.124 8.244 110.692 7.956 110.692 7.404C110.692 6.792 111.256 6.504 112.048 6.324L113.308 6.06V6.276C113.308 7.392 112.612 8.244 111.676 8.244ZM118.688 8.004C118.004 8.004 117.728 7.776 117.728 7.116V3.984H119.216V2.976H117.728V1.44H116.528V2.976H115.484V3.984H116.528V7.428C116.528 8.568 117.164 9 118.328 9H119.252V8.004H118.688ZM122.902 2.832C121.51 2.832 120.55 3.612 120.478 4.932H121.63C121.726 4.2 122.182 3.792 122.866 3.792C123.634 3.792 124.126 4.332 124.126 5.148V5.256L122.278 5.652C120.982 5.916 120.25 6.54 120.25 7.524C120.25 8.616 121.102 9.144 122.134 9.144C123.082 9.144 123.778 8.712 124.222 8.016V9H125.254V5.244C125.254 3.696 124.342 2.832 122.902 2.832ZM122.494 8.244C121.942 8.244 121.51 7.956 121.51 7.404C121.51 6.792 122.074 6.504 122.866 6.324L124.126 6.06V6.276C124.126 7.392 123.43 8.244 122.494 8.244ZM130.91 2.976V6.36C130.91 7.236 130.514 8.136 129.506 8.136C128.678 8.136 128.174 7.596 128.174 6.492V2.976H126.974V6.732C126.974 8.424 127.91 9.144 129.194 9.144C130.118 9.144 130.682 8.736 131.018 8.136V9H132.11V2.976H130.91Z" fill="#58585B"/>
</svg>
